# xmcd
#
# Track frame offsets: 
#        150
#        21081
#        40500
#        61040
#        84021
#        105249
#        126763
#        146201
#        166308
#        184994
#        200778
#        222380
#        244432
#        269341
#        290610
#        313429
#        331857
#
# Disc length: 4722 seconds
#
# Revision: 0
# Processed by: cddbd v1.5.1PL0 Copyright (c) Steve Scherf et al.
# Submitted via: ExactAudioCopy v0.95a5
#
DISCID=fd127011
DTITLE=Celine Dion - Pop Collection
DYEAR=2002
DGENRE=Blues
TTITLE0=My Heart Will Go On
TTITLE1=A New Day Has Come
TTITLE2=Because You Loved Me
TTITLE3=All By Myself
TTITLE4=Fhink Twice
TTITLE5=I Surrender
TTITLE6=Falling Into You
TTITLE7=The Player (With A. Bocelli)
TTITLE8=I'm Your (With R.Kelly)
TTITLE9=I'm Alive
TTITLE10=Tous Les Blues Ectrits Por Toi
TTITLE11=Ave Maria
TTITLE12=It's All Comming Back To Me Now
TTITLE13=I Hate You Then I Love You (With L.Pavarotti)
TTITLE14=The Power Of Love
TTITLE15=When I Need You
TTITLE16=Just Walk Away
EXTD=
EXTT0=
EXTT1=
EXTT2=
EXTT3=
EXTT4=
EXTT5=
EXTT6=
EXTT7=
EXTT8=
EXTT9=
EXTT10=
EXTT11=
EXTT12=
EXTT13=
EXTT14=
EXTT15=
EXTT16=
PLAYORDER=
